HIERARCHY
ROOT Hips
{
	OFFSET 0.00000 93.02000 0.00000
	CHANNELS 6 Xposition Yposition Zposition Yrotation Xrotation Zrotation
	JOINT RightUpLeg
	{
		OFFSET -9.25000 -1.59000 0.00000
		CHANNELS 6 Xposition Yposition Zposition Yrotation Xrotation Zrotation
		JOINT RightLeg
		{
			OFFSET 0.00000 -41.87000 0.00000
			CHANNELS 6 Xposition Yposition Zposition Yrotation Xrotation Zrotation
			JOINT RightFoot
			{
				OFFSET 0.00000 -41.87000 0.00000
				CHANNELS 6 Xposition Yposition Zposition Yrotation Xrotation Zrotation
				End site
				{
					OFFSET 0.00000 -7.69000 17.50000
				}
			}
		}
	}
	JOINT LeftUpLeg
	{
		OFFSET 9.25000 -1.59000 0.00000
		CHANNELS 6 Xposition Yposition Zposition Yrotation Xrotation Zrotation
		JOINT LeftLeg
		{
			OFFSET 0.00000 -41.87000 0.00000
			CHANNELS 6 Xposition Yposition Zposition Yrotation Xrotation Zrotation
			JOINT LeftFoot
			{
				OFFSET 0.00000 -41.87000 0.00000
				CHANNELS 6 Xposition Yposition Zposition Yrotation Xrotation Zrotation
				End site
				{
					OFFSET 0.00000 -7.69000 17.50000
				}
			}
		}
	}
	JOINT Spine
	{
		OFFSET 0.00000 14.30700 0.00000
		CHANNELS 6 Xposition Yposition Zposition Yrotation Xrotation Zrotation
		JOINT Spine1
		{
			OFFSET 0.00000 9.71800 0.00000
			CHANNELS 6 Xposition Yposition Zposition Yrotation Xrotation Zrotation
			JOINT Spine2
			{
				OFFSET 0.00000 10.12000 0.00000
				CHANNELS 6 Xposition Yposition Zposition Yrotation Xrotation Zrotation
				JOINT Spine3
				{
					OFFSET 0.00000 9.71800 0.00000
					CHANNELS 6 Xposition Yposition Zposition Yrotation Xrotation Zrotation
					JOINT Neck
					{
						OFFSET 0.00000 10.38700 0.00000
						CHANNELS 6 Xposition Yposition Zposition Yrotation Xrotation Zrotation
						JOINT Head
						{
							OFFSET 0.00000 9.47000 0.00000
							CHANNELS 6 Xposition Yposition Zposition Yrotation Xrotation Zrotation
							End site
							{
								OFFSET 0.00000 15.95000 0.00000
							}
						}
					}
					JOINT RightShoulder
					{
						OFFSET -3.20000 6.92500 0.00000
						CHANNELS 6 Xposition Yposition Zposition Yrotation Xrotation Zrotation
						JOINT RightArm
						{
							OFFSET -12.80000 0.00000 0.00000
							CHANNELS 6 Xposition Yposition Zposition Yrotation Xrotation Zrotation
							JOINT RightForeArm
							{
								OFFSET -26.50000 0.00000 0.00000
								CHANNELS 6 Xposition Yposition Zposition Yrotation Xrotation Zrotation
								JOINT RightHand
								{
									OFFSET -26.00000 0.00000 0.00000
									CHANNELS 6 Xposition Yposition Zposition Yrotation Xrotation Zrotation
									JOINT RightHandThumb1
									{
										OFFSET -2.48900 0.19000 3.12100
										CHANNELS 6 Xposition Yposition Zposition Yrotation Xrotation Zrotation
										JOINT RightHandThumb2
										{
											OFFSET -3.68300 0.00000 0.00000
											CHANNELS 6 Xposition Yposition Zposition Yrotation Xrotation Zrotation
											JOINT RightHandThumb3
											{
												OFFSET -2.55800 0.00000 0.00000
												CHANNELS 6 Xposition Yposition Zposition Yrotation Xrotation Zrotation
												End site
												{
													OFFSET -2.19400 0.00000 0.00000
												}
											}
										}
									}
									JOINT RightInHandIndex
									{
										OFFSET -3.22400 0.50800 1.97800
										CHANNELS 6 Xposition Yposition Zposition Yrotation Xrotation Zrotation
										JOINT RightHandIndex1
										{
											OFFSET -5.21700 -0.09100 0.99900
											CHANNELS 6 Xposition Yposition Zposition Yrotation Xrotation Zrotation
											JOINT RightHandIndex2
											{
												OFFSET -3.61900 0.00000 0.00000
												CHANNELS 6 Xposition Yposition Zposition Yrotation Xrotation Zrotation
												JOINT RightHandIndex3
												{
													OFFSET -2.05200 0.00000 0.00000
													CHANNELS 6 Xposition Yposition Zposition Yrotation Xrotation Zrotation
													End site
													{
														OFFSET -1.80500 0.00000 0.00000
													}
												}
											}
										}
									}
									JOINT RightInHandMiddle
									{
										OFFSET -3.38200 0.51700 0.75700
										CHANNELS 6 Xposition Yposition Zposition Yrotation Xrotation Zrotation
										JOINT RightHandMiddle1
										{
											OFFSET -5.17400 -0.08400 0.31400
											CHANNELS 6 Xposition Yposition Zposition Yrotation Xrotation Zrotation
											JOINT RightHandMiddle2
											{
												OFFSET -3.94900 0.00000 0.00000
												CHANNELS 6 Xposition Yposition Zposition Yrotation Xrotation Zrotation
												JOINT RightHandMiddle3
												{
													OFFSET -2.47600 0.00000 0.00000
													CHANNELS 6 Xposition Yposition Zposition Yrotation Xrotation Zrotation
													End site
													{
														OFFSET -1.97500 0.00000 0.00000
													}
												}
											}
										}
									}
									JOINT RightInHandRing
									{
										OFFSET -3.36500 0.53800 -0.12900
										CHANNELS 6 Xposition Yposition Zposition Yrotation Xrotation Zrotation
										JOINT RightHandRing1
										{
											OFFSET -4.63500 -0.02200 -0.47900
											CHANNELS 6 Xposition Yposition Zposition Yrotation Xrotation Zrotation
											JOINT RightHandRing2
											{
												OFFSET -3.44200 0.00000 0.00000
												CHANNELS 6 Xposition Yposition Zposition Yrotation Xrotation Zrotation
												JOINT RightHandRing3
												{
													OFFSET -2.38800 0.00000 0.00000
													CHANNELS 6 Xposition Yposition Zposition Yrotation Xrotation Zrotation
													End site
													{
														OFFSET -1.85700 0.00000 0.00000
													}
												}
											}
										}
									}
									JOINT RightInHandPinky
									{
										OFFSET -3.16100 0.46900 -1.20200
										CHANNELS 6 Xposition Yposition Zposition Yrotation Xrotation Zrotation
										JOINT RightHandPinky1
										{
											OFFSET -4.14100 -0.02200 -1.09100
											CHANNELS 6 Xposition Yposition Zposition Yrotation Xrotation Zrotation
											JOINT RightHandPinky2
											{
												OFFSET -2.75700 0.00000 0.00000
												CHANNELS 6 Xposition Yposition Zposition Yrotation Xrotation Zrotation
												JOINT RightHandPinky3
												{
													OFFSET -1.74200 0.00000 0.00000
													CHANNELS 6 Xposition Yposition Zposition Yrotation Xrotation Zrotation
													End site
													{
														OFFSET -1.64500 0.00000 0.00000
													}
												}
											}
										}
									}
								}
							}
						}
					}
					JOINT LeftShoulder
					{
						OFFSET 3.20000 6.92500 0.00000
						CHANNELS 6 Xposition Yposition Zposition Yrotation Xrotation Zrotation
						JOINT LeftArm
						{
							OFFSET 12.80000 0.00000 0.00000
							CHANNELS 6 Xposition Yposition Zposition Yrotation Xrotation Zrotation
							JOINT LeftForeArm
							{
								OFFSET 26.50000 0.00000 0.00000
								CHANNELS 6 Xposition Yposition Zposition Yrotation Xrotation Zrotation
								JOINT LeftHand
								{
									OFFSET 26.00000 0.00000 0.00000
									CHANNELS 6 Xposition Yposition Zposition Yrotation Xrotation Zrotation
									JOINT LeftHandThumb1
									{
										OFFSET 2.48900 0.19000 3.12100
										CHANNELS 6 Xposition Yposition Zposition Yrotation Xrotation Zrotation
										JOINT LeftHandThumb2
										{
											OFFSET 3.68300 0.00000 0.00000
											CHANNELS 6 Xposition Yposition Zposition Yrotation Xrotation Zrotation
											JOINT LeftHandThumb3
											{
												OFFSET 2.55800 0.00000 0.00000
												CHANNELS 6 Xposition Yposition Zposition Yrotation Xrotation Zrotation
												End site
												{
													OFFSET 2.19400 0.00000 0.00000
												}
											}
										}
									}
									JOINT LeftInHandIndex
									{
										OFFSET 3.22400 0.50800 1.97800
										CHANNELS 6 Xposition Yposition Zposition Yrotation Xrotation Zrotation
										JOINT LeftHandIndex1
										{
											OFFSET 5.21700 -0.09100 0.99900
											CHANNELS 6 Xposition Yposition Zposition Yrotation Xrotation Zrotation
											JOINT LeftHandIndex2
											{
												OFFSET 3.61900 0.00000 0.00000
												CHANNELS 6 Xposition Yposition Zposition Yrotation Xrotation Zrotation
												JOINT LeftHandIndex3
												{
													OFFSET 2.05200 0.00000 0.00000
													CHANNELS 6 Xposition Yposition Zposition Yrotation Xrotation Zrotation
													End site
													{
														OFFSET 1.80500 0.00000 0.00000
													}
												}
											}
										}
									}
									JOINT LeftInHandMiddle
									{
										OFFSET 3.38200 0.51700 0.75700
										CHANNELS 6 Xposition Yposition Zposition Yrotation Xrotation Zrotation
										JOINT LeftHandMiddle1
										{
											OFFSET 5.17400 -0.08400 0.31400
											CHANNELS 6 Xposition Yposition Zposition Yrotation Xrotation Zrotation
											JOINT LeftHandMiddle2
											{
												OFFSET 3.94900 0.00000 0.00000
												CHANNELS 6 Xposition Yposition Zposition Yrotation Xrotation Zrotation
												JOINT LeftHandMiddle3
												{
													OFFSET 2.47600 0.00000 0.00000
													CHANNELS 6 Xposition Yposition Zposition Yrotation Xrotation Zrotation
													End site
													{
														OFFSET 1.97500 0.00000 0.00000
													}
												}
											}
										}
									}
									JOINT LeftInHandRing
									{
										OFFSET 3.36500 0.53800 -0.12900
										CHANNELS 6 Xposition Yposition Zposition Yrotation Xrotation Zrotation
										JOINT LeftHandRing1
										{
											OFFSET 4.63500 -0.02200 -0.47900
											CHANNELS 6 Xposition Yposition Zposition Yrotation Xrotation Zrotation
											JOINT LeftHandRing2
											{
												OFFSET 3.44200 0.00000 0.00000
												CHANNELS 6 Xposition Yposition Zposition Yrotation Xrotation Zrotation
												JOINT LeftHandRing3
												{
													OFFSET 2.38800 0.00000 0.00000
													CHANNELS 6 Xposition Yposition Zposition Yrotation Xrotation Zrotation
													End site
													{
														OFFSET 1.85700 0.00000 0.00000
													}
												}
											}
										}
									}
									JOINT LeftInHandPinky
									{
										OFFSET 3.16100 0.46900 -1.20200
										CHANNELS 6 Xposition Yposition Zposition Yrotation Xrotation Zrotation
										JOINT LeftHandPinky1
										{
											OFFSET 4.14100 -0.02200 -1.09100
											CHANNELS 6 Xposition Yposition Zposition Yrotation Xrotation Zrotation
											JOINT LeftHandPinky2
											{
												OFFSET 2.75700 0.00000 0.00000
												CHANNELS 6 Xposition Yposition Zposition Yrotation Xrotation Zrotation
												JOINT LeftHandPinky3
												{
													OFFSET 1.74200 0.00000 0.00000
													CHANNELS 6 Xposition Yposition Zposition Yrotation Xrotation Zrotation
													End site
													{
														OFFSET 1.64500 0.00000 0.00000
													}
												}
											}
										}
									}
								}
							}
						}
					}
				}
			}
		}
	}
}
MOTION
Frames: 4
Frame Time: 0.008401
-17.192896 94.941048 29.679298 -107.062286 -1.099677 -3.184845 -9.269655 -1.612089 -0.005395 -3.609852 0.450298 -1.505723 -0.051631 -41.875076 0.004118 4.393248 13.517396 -0.24849 -0.124194 -42.21336 -0.693635 -22.757248 0.758272 10.048128 9.322048 -1.559931 0.183884 1.205172 0.098457 4.101133 0.035206 -41.860909 0.1406 -26.145258 -0.098204 -1.258775 0.271965 -41.64151 0.977984 38.5746 1.221501 -0.876657 0.038691 14.310159 0.019396 -12.890779 1.351536 4.263624 0.013171 9.715663 0.013587 -3.237581 0.378417 1.089599 -0.027707 10.120821 0.045178 -5.277978 0.77488 1.779272 0.011625 9.717941 0.047778 1.955637 -0.224113 -0.271103 -0.024514 10.392463 -0.090729 4.093561 -0.11844 -0.452823 0.013832 9.476797 -0.057457 36.703926 -1.264392 -5.751911 -3.190833 6.927871 0.02196 27.333391 0.59588 -2.386805 -12.785397 -0.003194 0.006644 -16.159689 -1.181396 73.409302 -26.531229 0.009835 0.036172 111.176704 -5.747128 61.668549 -26.003733 -0.043501 -0.045697 0.819677 -12.668162 7.414094 -2.489053 0.190105 3.120527 21.860001 -0.0 30.0 -3.682737 0.0 0.0 -10.0 -0.0 0.0 -2.558316 0.0 0.0 -10.0 -0.0 0.0 -3.223684 0.508421 1.978421 0.0 -0.0 0.0 -5.216842 -0.091368 0.999158 2.55 -0.0 20.0 -3.619368 0.0 0.0 0.0 -0.0 24.0 -2.052105 0.0 0.0 0.0 -0.0 20.0 -3.382106 0.517263 0.756737 0.0 -0.0 0.0 -5.174105 -0.084 0.313895 0.0 -0.0 20.0 -3.949473 0.0 0.0 0.0 -0.0 24.0 -2.475789 0.0 0.0 0.0 -0.0 20.0 -3.365158 0.537895 -0.128947 0.0 -0.0 0.0 -4.634737 -0.022105 -0.478947 -3.0 -0.0 20.0 -3.442379 0.0 0.0 0.0 -0.0 24.0 -2.388105 0.0 0.0 0.0 -0.0 20.0 -3.161053 0.469368 -1.201789 0.0 -0.0 0.0 -4.141052 -0.022105 -1.090526 -8.83 -0.0 20.0 -2.756526 0.0 0.0 0.0 -0.0 24.0 -1.741895 0.0 0.0 0.0 -0.0 20.0 3.185163 6.902318 -0.016159 -2.823274 -0.924653 -6.81183 12.745708 -0.134471 -0.138557 2.91205 -63.114494 -45.781071 26.442142 -0.040279 -0.168842 -25.364443 -24.946762 -22.829571 25.954672 -0.070188 0.023471 -17.29125 -19.256907 18.589022 2.489053 0.190105 3.120527 -21.860001 -0.0 -30.0 3.682737 0.0 0.0 10.0 -0.0 0.0 2.558316 0.0 0.0 10.0 -0.0 0.0 3.223684 0.508421 1.978421 0.0 -0.0 0.0 5.216842 -0.091368 0.999158 -2.55 -0.0 -20.0 3.619368 0.0 0.0 0.0 -0.0 -24.0 2.052105 0.0 0.0 0.0 -0.0 -20.0 3.382106 0.517263 0.756737 0.0 -0.0 0.0 5.174105 -0.084 0.313895 0.0 -0.0 -20.0 3.949473 0.0 0.0 0.0 -0.0 -24.0 2.475789 0.0 0.0 0.0 -0.0 -20.0 3.365158 0.537895 -0.128947 0.0 -0.0 0.0 4.634737 -0.022105 -0.478947 3.0 -0.0 -20.0 3.442379 0.0 0.0 0.0 -0.0 -24.0 2.388105 0.0 0.0 0.0 -0.0 -20.0 3.161053 0.469368 -1.201789 0.0 -0.0 0.0 4.141052 -0.022105 -1.090526 8.83 -0.0 -20.0 2.756526 0.0 0.0 0.0 -0.0 -24.0 1.741895 0.0 0.0 0.0 -0.0 -20.0
-17.336815 94.969337 29.798317 -107.374855 -1.065094 -3.402436 -9.262948 -1.620587 -0.007001 -3.705203 0.226127 -1.356714 -0.052021 -41.876431 -0.000903 4.284562 13.77005 -0.29499 -0.118997 -42.175198 -0.635051 -22.765142 1.26237 10.041553 9.334543 -1.550281 0.176223 1.378374 0.222884 4.16529 0.072304 -41.860882 0.149562 -26.082277 -0.216366 -1.242291 0.331204 -41.641251 0.961802 38.604443 1.144453 -0.695642 0.023427 14.310201 0.014845 -13.092508 1.445564 4.403169 0.009951 9.715545 0.011508 -3.288427 0.403483 1.126712 -0.029059 10.120981 0.044833 -5.355639 0.822974 1.838348 0.01277 9.718012 0.044047 1.967048 -0.23713 -0.272168 -0.027693 10.392155 -0.099423 4.341324 -0.120115 -0.477093 0.016751 9.477614 -0.058962 36.779259 -1.533624 -5.860445 -3.182101 6.928385 0.033957 27.402822 0.583069 -2.435982 -12.783339 -0.004894 0.032574 -15.988812 -1.134553 73.361053 -26.526184 -0.000959 0.025599 111.219467 -5.692605 61.649712 -26.001501 -0.071126 -0.022865 0.835544 -12.655376 7.386972 -2.489053 0.190105 3.120527 21.860001 -0.0 30.0 -3.682737 0.0 0.0 -10.0 -0.0 0.0 -2.558316 0.0 0.0 -10.0 -0.0 0.0 -3.223684 0.508421 1.978421 0.0 -0.0 0.0 -5.216842 -0.091368 0.999158 2.55 -0.0 20.0 -3.619368 0.0 0.0 0.0 -0.0 24.0 -2.052105 0.0 0.0 0.0 -0.0 20.0 -3.382106 0.517263 0.756737 0.0 -0.0 0.0 -5.174105 -0.084 0.313895 0.0 -0.0 20.0 -3.949473 0.0 0.0 0.0 -0.0 24.0 -2.475789 0.0 0.0 0.0 -0.0 20.0 -3.365158 0.537895 -0.128947 0.0 -0.0 0.0 -4.634737 -0.022105 -0.478947 -3.0 -0.0 20.0 -3.442379 0.0 0.0 0.0 -0.0 24.0 -2.388105 0.0 0.0 0.0 -0.0 20.0 -3.161053 0.469368 -1.201789 0.0 -0.0 0.0 -4.141052 -0.022105 -1.090526 -8.83 -0.0 20.0 -2.756526 0.0 0.0 0.0 -0.0 24.0 -1.741895 0.0 0.0 0.0 -0.0 20.0 3.185388 6.902649 -0.03467 -2.817794 -0.954665 -6.825173 12.758998 -0.168103 -0.181607 1.192024 -63.867516 -44.091137 26.432022 -0.024348 -0.194235 -23.940645 -25.490059 -22.317986 25.952164 -0.075266 0.050159 -17.260778 -20.164431 18.252062 2.489053 0.190105 3.120527 -21.860001 -0.0 -30.0 3.682737 0.0 0.0 10.0 -0.0 0.0 2.558316 0.0 0.0 10.0 -0.0 0.0 3.223684 0.508421 1.978421 0.0 -0.0 0.0 5.216842 -0.091368 0.999158 -2.55 -0.0 -20.0 3.619368 0.0 0.0 0.0 -0.0 -24.0 2.052105 0.0 0.0 0.0 -0.0 -20.0 3.382106 0.517263 0.756737 0.0 -0.0 0.0 5.174105 -0.084 0.313895 0.0 -0.0 -20.0 3.949473 0.0 0.0 0.0 -0.0 -24.0 2.475789 0.0 0.0 0.0 -0.0 -20.0 3.365158 0.537895 -0.128947 0.0 -0.0 0.0 4.634737 -0.022105 -0.478947 3.0 -0.0 -20.0 3.442379 0.0 0.0 0.0 -0.0 -24.0 2.388105 0.0 0.0 0.0 -0.0 -20.0 3.161053 0.469368 -1.201789 0.0 -0.0 0.0 4.141052 -0.022105 -1.090526 8.83 -0.0 -20.0 2.756526 0.0 0.0 0.0 -0.0 -24.0 1.741895 0.0 0.0 0.0 -0.0 -20.0
-17.468143 94.998177 29.919258 -107.666092 -0.998772 -3.596629 -9.259825 -1.626599 -0.010207 -3.817613 -0.01933 -1.217083 -0.052183 -41.877548 -0.009214 4.195056 14.005101 -0.345492 -0.118347 -42.142101 -0.565137 -22.809505 1.738226 10.037337 9.346758 -1.543109 0.173243 1.5553 0.314369 4.204995 0.095356 -41.860344 0.162408 -26.036064 -0.325529 -1.191657 0.386046 -41.643276 0.951136 38.678795 1.06866 -0.566961 0.012439 14.310226 0.008118 -13.308385 1.525487 4.525744 0.008453 9.715605 0.008742 -3.34297 0.425125 1.159352 -0.029223 10.121134 0.043406 -5.439255 0.86523 1.890058 0.014263 9.71813 0.040254 1.977957 -0.250667 -0.273303 -0.03158 10.391721 -0.108281 4.583999 -0.122406 -0.501914 0.018478 9.478442 -0.06268 36.851097 -1.81378 -5.97507 -3.17404 6.927096 0.044503 27.482351 0.554838 -2.489318 -12.784019 -0.006155 0.055928 -15.831074 -1.095159 73.306526 -26.516706 -0.005379 0.018476 111.262527 -5.634855 61.653248 -25.998997 -0.092613 4.5e-05 0.87543 -12.656691 7.369511 -2.489053 0.190105 3.120527 21.860001 -0.0 30.0 -3.682737 0.0 0.0 -10.0 -0.0 0.0 -2.558316 0.0 0.0 -10.0 -0.0 0.0 -3.223684 0.508421 1.978421 0.0 -0.0 0.0 -5.216842 -0.091368 0.999158 2.55 -0.0 20.0 -3.619368 0.0 0.0 0.0 -0.0 24.0 -2.052105 0.0 0.0 0.0 -0.0 20.0 -3.382106 0.517263 0.756737 0.0 -0.0 0.0 -5.174105 -0.084 0.313895 0.0 -0.0 20.0 -3.949473 0.0 0.0 0.0 -0.0 24.0 -2.475789 0.0 0.0 0.0 -0.0 20.0 -3.365158 0.537895 -0.128947 0.0 -0.0 0.0 -4.634737 -0.022105 -0.478947 -3.0 -0.0 20.0 -3.442379 0.0 0.0 0.0 -0.0 24.0 -2.388105 0.0 0.0 0.0 -0.0 20.0 -3.161053 0.469368 -1.201789 0.0 -0.0 0.0 -4.141052 -0.022105 -1.090526 -8.83 -0.0 20.0 -2.756526 0.0 0.0 0.0 -0.0 24.0 -1.741895 0.0 0.0 0.0 -0.0 20.0 3.185952 6.902831 -0.052094 -2.793072 -0.991245 -6.812473 12.769279 -0.196656 -0.217721 -0.688346 -64.48703 -42.276062 26.422503 -0.017733 -0.21514 -22.594629 -26.183392 -21.739544 25.949108 -0.082265 0.07293 -17.119051 -21.063953 17.909723 2.489053 0.190105 3.120527 -21.860001 -0.0 -30.0 3.682737 0.0 0.0 10.0 -0.0 0.0 2.558316 0.0 0.0 10.0 -0.0 0.0 3.223684 0.508421 1.978421 0.0 -0.0 0.0 5.216842 -0.091368 0.999158 -2.55 -0.0 -20.0 3.619368 0.0 0.0 0.0 -0.0 -24.0 2.052105 0.0 0.0 0.0 -0.0 -20.0 3.382106 0.517263 0.756737 0.0 -0.0 0.0 5.174105 -0.084 0.313895 0.0 -0.0 -20.0 3.949473 0.0 0.0 0.0 -0.0 -24.0 2.475789 0.0 0.0 0.0 -0.0 -20.0 3.365158 0.537895 -0.128947 0.0 -0.0 0.0 4.634737 -0.022105 -0.478947 3.0 -0.0 -20.0 3.442379 0.0 0.0 0.0 -0.0 -24.0 2.388105 0.0 0.0 0.0 -0.0 -20.0 3.161053 0.469368 -1.201789 0.0 -0.0 0.0 4.141052 -0.022105 -1.090526 8.83 -0.0 -20.0 2.756526 0.0 0.0 0.0 -0.0 -24.0 1.741895 0.0 0.0 0.0 -0.0 -20.0
-17.59584 95.025345 30.043619 -107.944153 -0.919948 -3.781208 -9.263372 -1.633711 -0.012673 -3.946403 -0.274434 -1.061543 -0.058835 -41.879303 -0.012336 4.18458 14.252559 -0.402093 -0.104827 -42.1133 -0.5298 -22.95768 2.173143 10.066197 9.363407 -1.534266 0.177536 1.755096 0.409804 4.225028 0.119852 -41.859451 0.173093 -25.999697 -0.455207 -1.118633 0.433114 -41.647015 0.952896 38.599438 1.01151 -0.418857 -0.001252 14.310107 0.000363 -13.533237 1.601947 4.63907 0.005763 9.715569 0.005316 -3.399839 0.445918 1.189672 -0.030028 10.121268 0.041167 -5.526437 0.905999 1.937865 0.014843 9.718252 0.035812 1.9883 -0.264385 -0.274326 -0.036495 10.39125 -0.116714 4.818782 -0.125199 -0.52669 0.01805 9.47928 -0.06694 36.919197 -2.099469 -6.09044 -3.166878 6.92761 0.053848 27.575302 0.520207 -2.534191 -12.782977 -0.005738 0.076788 -15.704724 -1.076386 73.235481 -26.506617 -0.010885 0.011333 111.29628 -5.586992 61.686417 -25.99721 -0.10993 0.022795 0.911184 -12.683263 7.371643 -2.489053 0.190105 3.120527 21.860001 -0.0 30.0 -3.682737 0.0 0.0 -10.0 -0.0 0.0 -2.558316 0.0 0.0 -10.0 -0.0 0.0 -3.223684 0.508421 1.978421 0.0 -0.0 0.0 -5.216842 -0.091368 0.999158 2.55 -0.0 20.0 -3.619368 0.0 0.0 0.0 -0.0 24.0 -2.052105 0.0 0.0 0.0 -0.0 20.0 -3.382106 0.517263 0.756737 0.0 -0.0 0.0 -5.174105 -0.084 0.313895 0.0 -0.0 20.0 -3.949473 0.0 0.0 0.0 -0.0 24.0 -2.475789 0.0 0.0 0.0 -0.0 20.0 -3.365158 0.537895 -0.128947 0.0 -0.0 0.0 -4.634737 -0.022105 -0.478947 -3.0 -0.0 20.0 -3.442379 0.0 0.0 0.0 -0.0 24.0 -2.388105 0.0 0.0 0.0 -0.0 20.0 -3.161053 0.469368 -1.201789 0.0 -0.0 0.0 -4.141052 -0.022105 -1.090526 -8.83 -0.0 20.0 -2.756526 0.0 0.0 0.0 -0.0 24.0 -1.741895 0.0 0.0 0.0 -0.0 20.0 3.185306 6.902646 -0.068588 -2.765793 -1.027631 -6.780383 12.780186 -0.223727 -0.252606 -2.655924 -65.006187 -40.411091 26.41465 -0.012487 -0.2365 -21.340599 -26.943026 -21.071718 25.946293 -0.091078 0.096166 -16.907356 -21.958763 17.566004 2.489053 0.190105 3.120527 -21.860001 -0.0 -30.0 3.682737 0.0 0.0 10.0 -0.0 0.0 2.558316 0.0 0.0 10.0 -0.0 0.0 3.223684 0.508421 1.978421 0.0 -0.0 0.0 5.216842 -0.091368 0.999158 -2.55 -0.0 -20.0 3.619368 0.0 0.0 0.0 -0.0 -24.0 2.052105 0.0 0.0 0.0 -0.0 -20.0 3.382106 0.517263 0.756737 0.0 -0.0 0.0 5.174105 -0.084 0.313895 0.0 -0.0 -20.0 3.949473 0.0 0.0 0.0 -0.0 -24.0 2.475789 0.0 0.0 0.0 -0.0 -20.0 3.365158 0.537895 -0.128947 0.0 -0.0 0.0 4.634737 -0.022105 -0.478947 3.0 -0.0 -20.0 3.442379 0.0 0.0 0.0 -0.0 -24.0 2.388105 0.0 0.0 0.0 -0.0 -20.0 3.161053 0.469368 -1.201789 0.0 -0.0 0.0 4.141052 -0.022105 -1.090526 8.83 -0.0 -20.0 2.756526 0.0 0.0 0.0 -0.0 -24.0 1.741895 0.0 0.0 0.0 -0.0 -20.0
